<svg width="40" height="40" viewBox="0 0 40 40" fill="none" xmlns="http://www.w3.org/2000/svg">
<g id="heroicons-solid:arrow-narrow-right">
<path id="Vector" fill-rule="evenodd" clip-rule="evenodd" d="M15.414 29.4139C15.0389 29.7889 14.5303 29.9995 14 29.9995C13.4697 29.9995 12.9611 29.7889 12.586 29.4139L4.586 21.4139C4.21106 21.0389 4.00043 20.5303 4.00043 19.9999C4.00043 19.4696 4.21106 18.961 4.586 18.5859L12.586 10.5859C12.9632 10.2216 13.4684 10.02 13.9928 10.0246C14.5172 10.0291 15.0188 10.2395 15.3896 10.6103C15.7605 10.9811 15.9708 11.4827 15.9753 12.0071C15.9799 12.5315 15.7783 13.0367 15.414 13.4139L10.828 17.9999L34 17.9999C34.5304 17.9999 35.0391 18.2107 35.4142 18.5857C35.7893 18.9608 36 19.4695 36 19.9999C36 20.5304 35.7893 21.0391 35.4142 21.4142C35.0391 21.7892 34.5304 21.9999 34 21.9999L10.828 21.9999L15.414 26.5859C15.7889 26.961 15.9996 27.4696 15.9996 27.9999C15.9996 28.5303 15.7889 29.0389 15.414 29.4139Z" fill="white"/>
</g>
</svg>
