<svg width="255" height="71" viewBox="0 0 255 71" fill="none" xmlns="http://www.w3.org/2000/svg">
<path id="Vector 1" d="M10.7628 29.044C11.3138 27.7452 10.7076 26.2456 9.40886 25.6947C8.11008 25.1437 6.61054 25.7499 6.05955 27.0486L10.7628 29.044ZM157.525 24.4403L157.118 26.9623L157.525 24.4403ZM201.279 38.6608L202.91 40.6266L201.279 38.6608ZM254.271 13.4985C254.873 12.2227 254.327 10.7002 253.051 10.098L232.26 0.284434C230.985 -0.317777 229.462 0.228307 228.86 1.50414C228.258 2.77998 228.804 4.30244 230.08 4.90465L248.561 13.6279L239.837 32.1087C239.235 33.3846 239.781 34.907 241.057 35.5092C242.333 36.1114 243.855 35.5654 244.458 34.2895L254.271 13.4985ZM6.05955 27.0486C1.73024 37.2535 -0.0754029 45.1581 0.586667 51.0679C0.924356 54.0823 1.91268 56.652 3.59863 58.7048C5.28321 60.7559 7.52743 62.1243 10.1044 62.9634C15.1477 64.6055 21.7461 64.3108 29.0636 62.9935C36.4583 61.6624 44.9488 59.2149 53.9667 56.224C62.9938 53.2301 72.6346 49.6626 82.3275 46.07C92.0376 42.4712 101.802 38.8463 111.146 35.7079C120.494 32.5679 129.354 29.9376 137.245 28.3169C145.175 26.6881 151.921 26.124 157.118 26.9623L157.931 21.9184C151.825 20.9336 144.363 21.6391 136.217 23.3123C128.031 24.9936 118.947 27.6979 109.519 30.8647C100.087 34.0331 90.2442 37.6872 80.552 41.2795C70.8428 44.878 61.2865 48.4136 52.3584 51.3747C43.4213 54.3388 35.1985 56.698 28.1585 57.9653C21.0414 59.2465 15.4837 59.3418 11.6862 58.1054C9.84274 57.5051 8.49537 56.6172 7.54676 55.4622C6.59952 54.3088 5.91305 52.7228 5.66395 50.4991C5.15242 45.9331 6.52514 39.0329 10.7628 29.044L6.05955 27.0486ZM157.118 26.9623C185.41 31.5254 205.754 36.7627 216.238 42.7474C221.563 45.7869 223.527 48.552 223.684 50.8171C223.84 53.0696 222.299 56.2321 216.878 60.3205L219.954 64.3997C225.653 60.1019 229.127 55.4707 228.781 50.4651C228.436 45.4721 224.384 41.5147 218.771 38.3103C207.378 31.8071 186.156 26.4707 157.931 21.9184L157.118 26.9623ZM216.878 60.3205C211.635 64.2742 207.321 65.4445 204.152 65.1866C201.053 64.9343 198.718 63.2965 197.286 60.8446C194.367 55.8458 195.148 47.0679 202.91 40.6266L199.648 36.6949C190.273 44.474 188.501 55.9321 192.875 63.4209C195.089 67.2129 198.862 69.8819 203.738 70.2788C208.545 70.6702 214.076 68.8322 219.954 64.3997L216.878 60.3205ZM202.91 40.6266C209.525 35.1381 219.178 29.6844 228.683 25.0705C238.155 20.473 247.314 16.789 252.824 14.8127L251.099 10.0036C245.427 12.038 236.099 15.7921 226.453 20.4742C216.84 25.1399 206.743 30.8071 199.648 36.6949L202.91 40.6266Z" fill="url(#paint0_linear_1348_1119)"/>
<defs>
<linearGradient id="paint0_linear_1348_1119" x1="-185.345" y1="103.068" x2="245.136" y2="54.4434" gradientUnits="userSpaceOnUse">
<stop stop-color="#FFF278"/>
<stop offset="1" stop-color="#F28D2F"/>
</linearGradient>
</defs>
</svg>
