<svg width="40" height="40" viewBox="0 0 40 40" fill="none" xmlns="http://www.w3.org/2000/svg">
<g id="heroicons-solid:arrow-narrow-right">
<path id="Vector" fill-rule="evenodd" clip-rule="evenodd" d="M24.586 10.5861C24.9611 10.2111 25.4697 10.0005 26 10.0005C26.5303 10.0005 27.0389 10.2111 27.414 10.5861L35.414 18.5861C35.7889 18.9611 35.9996 19.4697 35.9996 20.0001C35.9996 20.5304 35.7889 21.039 35.414 21.4141L27.414 29.4141C27.0368 29.7784 26.5316 29.98 26.0072 29.9754C25.4828 29.9709 24.9812 29.7605 24.6104 29.3897C24.2395 29.0189 24.0292 28.5173 24.0247 27.9929C24.0201 27.4685 24.2217 26.9633 24.586 26.5861L29.172 22.0001H6C5.46957 22.0001 4.96086 21.7893 4.58579 21.4143C4.21071 21.0392 4 20.5305 4 20.0001C4 19.4696 4.21071 18.9609 4.58579 18.5858C4.96086 18.2108 5.46957 18.0001 6 18.0001H29.172L24.586 13.4141C24.2111 13.039 24.0004 12.5304 24.0004 12.0001C24.0004 11.4697 24.2111 10.9611 24.586 10.5861Z" fill="white"/>
</g>
</svg>
