<svg width="44" height="25" viewBox="0 0 44 25" fill="none" xmlns="http://www.w3.org/2000/svg">
<path id="Vector" d="M3.09307 23.6752H0.18182V7.78328H2.96649V10.3779H3.09307C3.3884 9.53463 3.98964 8.82112 4.89678 8.23734C5.82499 7.63192 6.73213 7.32923 7.61816 7.32923C8.46201 7.32923 9.17926 7.45896 9.76995 7.71842L8.88392 10.6049C8.5253 10.4535 7.95571 10.3779 7.17515 10.3779C6.07815 10.3779 5.11829 10.8319 4.29554 11.74C3.4939 12.6481 3.09307 13.7076 3.09307 14.9184V23.6752ZM8.90766 18.8103C8.90766 19.5887 9.2241 20.2373 9.85698 20.7563C10.511 21.2752 11.2704 21.5346 12.1353 21.5346C13.3589 21.5346 14.4454 21.0698 15.3947 20.14C16.3651 19.2103 16.8503 18.1184 16.8503 16.8644C15.9432 16.1292 14.6774 15.7617 13.053 15.7617C11.8717 15.7617 10.8801 16.0536 10.0785 16.6373C9.29792 17.2211 8.90766 17.9454 8.90766 18.8103ZM12.6733 7.26436C14.8251 7.26436 16.5233 7.85895 17.768 9.04815C19.0126 10.2157 19.635 11.8265 19.635 13.8806V23.6752H16.8503V21.4698H16.7237C15.5213 23.286 13.9179 24.1941 11.9138 24.1941C10.2051 24.1941 8.77054 23.6752 7.61025 22.6373C6.47107 21.5995 5.90147 20.3022 5.90147 18.7454C5.90147 17.1022 6.50271 15.7941 7.70518 14.8211C8.92876 13.8481 10.5531 13.3617 12.5784 13.3617C14.3082 13.3617 15.7322 13.686 16.8503 14.3346V13.6536C16.8503 12.6157 16.4495 11.74 15.6478 11.0265C14.8462 10.2914 13.9074 9.92382 12.8315 9.92382C11.2071 9.92382 9.92026 10.6265 8.97094 12.0319L6.40778 10.3779C7.82122 8.3022 9.90972 7.26436 12.6733 7.26436ZM25.7981 0.194092C26.8529 0.194092 27.718 0.377875 28.3929 0.745444L27.6018 3.37247C27.0955 3.11301 26.5259 2.98328 25.8931 2.98328C25.1757 2.98328 24.5852 3.24274 24.121 3.76166C23.678 4.25895 23.4565 4.92923 23.4565 5.77247V7.78328H27.5069V10.5076H23.4565V23.6752H20.5452V10.5076H17.634V7.78328H20.5452V5.48058C20.5452 3.90219 21.0305 2.62653 22.0009 1.65355C22.9924 0.68058 24.2581 0.194092 25.7981 0.194092ZM24.1895 15.7292C24.1895 13.286 24.9384 11.2644 26.4361 9.66436C27.955 8.06437 29.8644 7.26436 32.1637 7.26436C34.4632 7.26436 36.3619 8.06437 37.8596 9.66436C39.3785 11.2644 40.138 13.286 40.138 15.7292C40.138 18.1941 39.3785 20.2157 37.8596 21.7941C36.3619 23.3941 34.4632 24.1941 32.1637 24.1941C29.8644 24.1941 27.955 23.3941 26.4361 21.7941C24.9384 20.1941 24.1895 18.1725 24.1895 15.7292ZM27.1006 15.7292C27.1006 17.4373 27.586 18.8211 28.5563 19.8806C29.5268 20.94 30.7292 21.4698 32.1637 21.4698C33.5984 21.4698 34.8009 20.94 35.7711 19.8806C36.7416 18.8211 37.2267 17.4373 37.2267 15.7292C37.2267 14.0427 36.7416 12.6698 35.7711 11.6103C34.7797 10.5292 33.5772 9.98869 32.1637 9.98869C30.7504 9.98869 29.5479 10.5292 28.5563 11.6103C27.586 12.6698 27.1006 14.0427 27.1006 15.7292ZM43.8182 21.6644C43.8182 22.2698 43.6071 22.7887 43.1853 23.2211C42.7844 23.6535 42.2781 23.8698 41.6664 23.8698C41.0756 23.8698 40.5693 23.6535 40.1475 23.2211C39.7256 22.7887 39.5146 22.2698 39.5146 21.6644C39.5146 21.0373 39.7256 20.5184 40.1475 20.1076C40.5693 19.6752 41.0756 19.459 41.6664 19.459C42.2781 19.459 42.7844 19.6752 43.1853 20.1076C43.6071 20.5184 43.8182 21.0373 43.8182 21.6644Z" fill="#F9FAFB"/>
</svg>
